<svg xmlns="http://www.w3.org/2000/svg" enable-background="new 0 0 277.836 229.322" viewBox="0 0 277.836 229.322" id="eye"><path d="M235.994,153.265l-0.883,0.121l-0.316,0.833c-15.188,40.014-51.064,67.442-93.628,71.581   c-39.77,3.871-78.842-14.003-101.975-46.638l-0.099-0.125c-3.834-4.351-7.595-8.201-11.231-11.923   c-12.653-12.952-22.647-23.183-24.567-42.927C1.55,106.241,7.704,87.213,14.663,79.185c6.505-7.506,17.823-19.776,20.026-22.159   l0.181-0.239c18.462-30.404,49.328-49.813,84.684-53.25C123.238,3.178,126.909,3,130.564,3c25.785,0,50.565,8.848,70.737,25.444   c23.031,18.949,37.305,45.733,40.191,75.418c0.337,3.463,0.514,7.026,0.524,10.588l0.003,0.81l0.677,0.442   c5.072,3.31,15.028,7.656,34.438,11.369l0.701-2.914c-18.16-3.453-27.764-7.424-32.825-10.54   c-0.033-3.381-0.212-6.756-0.532-10.045c-2.965-30.482-17.622-57.986-41.271-77.444c-23.65-19.458-53.46-28.54-83.944-25.578   C83.009,4.075,51.351,23.956,32.385,55.1c-2.436,2.635-13.549,14.689-19.989,22.12c-7.373,8.506-13.91,28.509-12.087,47.257   c2.022,20.795,12.859,31.888,25.408,44.733c3.594,3.679,7.309,7.481,11.074,11.751c21.614,30.447,56.746,48.361,93.639,48.36   c3.66-0.001,7.344-0.177,11.028-0.535c21.679-2.108,42.177-10.265,59.278-23.588c16.403-12.779,29.022-29.73,36.538-49.068   c5.494-0.602,15.218-0.383,32.202,2.764l0.702-2.917C251.731,152.555,241.533,152.51,235.994,153.265z" fill="#ffffff"></path><path d="M235.349,118.885l-0.014-4.413c-0.011-3.363-0.177-6.715-0.493-9.963c-5.603-57.612-57.04-99.918-114.643-94.322   c-33.24,3.233-62.259,21.482-79.616,50.068l-0.429,0.704l-0.558,0.604c-1.328,1.437-13.176,14.257-19.885,21.999   C14.566,89.5,8.308,106.698,9.945,123.54c1.692,17.403,10.503,26.421,22.724,38.932c3.687,3.775,7.499,7.678,11.438,12.147   l0.536,0.678c19.788,27.916,51.979,44.343,85.782,44.342c3.353,0,6.723-0.161,10.096-0.489   c40.017-3.892,73.747-29.681,88.027-67.302l1.727-4.546l4.815-0.657c0.538-0.073,1.109-0.14,1.712-0.199   c5.597-0.546,19.872,0.972,34.888,3.248l4.005-16.641c-15.843-3.704-31.216-8.21-36.651-11.757L235.349,118.885z M42.793,168.705   c-3.797-8.125-12.308-22.433-14.71-42.465c-6.677,0.793-3.176,17.741-1.08,25.935c-7.626-8.441-12.86-16.462-14.072-28.925   c-1.557-16.006,4.254-32.193,9.048-37.725c1.419-1.638,3.072-3.507,4.806-5.446c-2.104,8.791-5.152,25.244,1.298,26.04   c2.011-17.419,8.307-30.675,12.534-39.485c-0.305,2.395-0.557,5.742-0.581,9.784C40.02,79.123,40,82.145,39.981,85.39   c-4.787,4.276-8.248,16.61-8.248,31.168c0,15.539,3.943,28.544,9.234,31.919c0.146,2.433,0.311,4.759,0.498,6.939   c0.582,6.776,2.014,12.177,3.183,15.323C44.027,170.053,43.407,169.368,42.793,168.705z M67.535,40.81   c5.542,1.791,10.004-0.501,10.219-0.615l0.162-0.1c12.747-8.985,27.833-14.547,43.627-16.083c2.958-0.288,5.95-0.433,8.895-0.433   c22.478,0,44.116,8.352,60.929,23.517c16.919,15.26,27.448,36.127,29.648,58.756c0.274,2.817,0.418,5.733,0.429,8.667l0.035,11.901   l4.76,3.107c-5.82-2.174-9.608-4.308-9.987-6.204c-0.598-2.989-0.797-7.125-1.008-11.503c-0.504-10.455-1.075-22.305-7.228-26.92   c-1.508-1.13-3.46-2.359-5.72-3.783c-9.889-6.228-24.833-15.639-25.146-31.354l-3,0.06c0.347,17.333,16.114,27.262,26.548,33.833   c2.204,1.388,4.108,2.587,5.518,3.645c5.025,3.768,5.583,15.354,6.032,24.664c0.216,4.493,0.421,8.738,1.063,11.947   c0.191,0.954,0.738,2.083,2.28,3.396c-11.401-2.959-19.032-5.607-20.064-7.449c-1.146-2.045-1.324-5.949-1.53-10.469   c-0.52-11.411-1.23-27.039-17.962-33.758c-10.525-4.227-10.929-11.841-11.396-20.656c-0.449-8.491-0.96-18.115-12.563-23.486   l-1.26,2.723c9.963,4.612,10.383,12.535,10.827,20.922c0.455,8.597,0.972,18.341,13.274,23.282   c14.939,6,15.573,19.922,16.083,31.11c0.036,0.782,0.072,1.539,0.112,2.283c-1.853-0.604-5.537-2.834-7.13-11.067   c-2.619-13.528-17.416-14.119-17.565-14.124l-0.091,2.999c0.512,0.017,12.553,0.545,14.711,11.695   c2.158,11.151,8.068,13.239,10.297,13.63c0.246,2.569,0.67,4.768,1.576,6.384c0.658,1.173,2.167,3.858,24.016,9.403   c-10.752-0.843-19.902-0.223-24.341,3.198c-7.393,5.698-9.588,12.685-11.191,17.786c-1.823,5.801-2.749,8.129-7.574,7.53   c-2.292-0.287-4.443-0.674-6.523-1.049c-8.906-1.606-16.602-2.992-27.619,4.952l1.754,2.434c9.986-7.199,16.76-5.978,25.333-4.433   c2.119,0.382,4.311,0.777,6.684,1.073c7.493,0.936,9.104-4.184,10.809-9.607c1.566-4.984,3.516-11.188,10.161-16.31   c3.851-2.968,12.421-3.438,22.83-2.537c-4.756,0.533-8.574,1.672-10.745,3.676c-3.196,2.951-6.587,7.748-10.177,12.826   c-8.285,11.72-18.577,26.307-31.381,24.708c-10.993-1.376-21.124,3.68-30.921,8.567c-7.735,3.858-15.045,7.514-21.629,7.157   l-0.158,2.996c0.349,0.018,0.697,0.027,1.047,0.027c7.054,0,14.363-3.646,22.079-7.496c9.397-4.688,19.119-9.534,29.21-8.275   c0.797,0.1,1.581,0.148,2.355,0.148c5.758-0.001,10.921-2.666,15.595-6.63c0.553,2.085,1.273,6.205-0.618,9.159   c-1.374,2.148-3.987,3.365-7.767,3.617c-14.775,0.985-18.764,4.885-24.8,10.788l-1.156,1.128l2.088,2.154l1.166-1.138   c5.757-5.63,9.231-9.028,22.901-9.939c4.789-0.319,8.188-2.003,10.103-5.006c3.192-5.005,0.957-11.833,0.538-12.999   c5.169-5.034,9.716-11.462,13.796-17.234c3.496-4.946,6.798-9.617,9.763-12.354c1.97-1.818,5.913-2.754,10.96-3.089l-3.936,10.36   c-12.393,32.65-41.662,55.03-76.386,58.407c-2.899,0.282-5.845,0.425-8.753,0.425c-21.474,0-42.368-7.641-58.833-21.514   l-0.16-0.135l-0.191-0.086c-0.164-0.073-3.701-1.61-9.14-0.656c-3.805-3.816-7.323-7.961-10.488-12.427l-0.477-0.676l-2.503-15.625   l-0.192-7.993c4.235-5.042,7.198-16.609,7.198-30.079c0-14.989-3.669-27.619-8.678-31.525l-0.197-8.215l0.263-11.293l0.82-1.35   C53.267,55.242,59.922,47.402,67.535,40.81z M43.257,89.754c4.243,0,7.683,11.924,7.683,26.634s-3.44,26.634-7.683,26.634   s-7.683-11.924-7.683-26.634S39.014,89.754,43.257,89.754z M234.878,139.163l-9.263,1.265l-3.32,8.74   c-13.253,34.92-44.559,58.855-81.699,62.467c-3.1,0.301-6.251,0.454-9.366,0.454c-24.797,0-48.467-9.485-66.337-26.03   c2.64-0.111,4.426,0.439,4.952,0.628c16.977,14.228,38.479,22.062,60.577,22.062c3.005,0,6.047-0.147,9.044-0.438   c35.866-3.488,66.1-26.605,78.899-60.329l4.025-10.595l6.411-0.875c4.552,0.195,9.467,0.651,14.385,1.253   c1.791,0.452,3.681,0.912,5.692,1.383c0.109,0.026,0.219,0.051,0.328,0.076c-3.397-0.282-6.386-0.44-8.771-0.44   c-1.375,0-2.539,0.048-3.56,0.148C236.175,138.999,235.507,139.077,234.878,139.163z M236.138,132.129   c-1.179-0.586-2.202-1.16-3.047-1.711l-8.616-5.625l-0.031-10.283c-0.011-3.027-0.16-6.038-0.442-8.947   c-2.272-23.376-13.149-44.931-30.625-60.693c-17.365-15.663-39.717-24.289-62.938-24.289c-3.041,0-6.131,0.15-9.185,0.447   c-16.272,1.583-31.821,7.306-44.973,16.552c-0.426,0.203-2.763,1.215-5.847,0.816c14.487-11.582,32.138-18.829,51.304-20.692   c3.156-0.307,6.354-0.463,9.507-0.463c24.049,0,47.194,8.931,65.175,25.149c18.097,16.322,29.359,38.643,31.713,62.85   c0.293,3.017,0.448,6.132,0.457,9.257l0.027,8.486l7.107,4.638c5.056,3.3,15.938,6.864,27.937,10.025   C254.076,135.855,244.711,133.983,236.138,132.129z" fill="#ffffff"></path></svg>